<svg xmlns="http://www.w3.org/2000/svg" width="512" height="512">
  <style>
    path {
      fill: #C90069;
    }
    @media (prefers-color-scheme: dark) {
      path {
        fill: yellow;
      }
    }
  </style>
  <path d="M316.096 69.25c-3.293 7.224-12.998 16.467-28.089 26.75-14.209 9.683-14.467 10.028-21.318 28.5-5.199 14.017-8.132 25.21-11.122 42.437l-2.159 12.436-2.718-15.049c-1.495-8.277-3.58-22.604-4.633-31.838l-1.914-16.788-6.322-6.403c-7.573-7.67-13.189-11.553-20.716-14.321-16.254-5.978-19.786-7.596-28.475-13.045-5.201-3.261-9.691-5.929-9.98-5.929-.288 0-.275 1.537.03 3.416 1.931 11.898-8.44 35.497-17.21 39.161-4.608 1.926-8.086 1.792-14.97-.577-7.626-2.624-14.442-2.62-17.784.009-3.912 3.077-4.945 9.879-4.131 27.211.819 17.424-.117 22.153-5.502 27.814-5.434 5.711-12.335 7.376-27.806 6.707-6.752-.291-12.271-.465-12.264-.385.007.079.891 2.947 1.965 6.372 2.335 7.447 4.537 19.939 6.043 34.275 2.118 20.179-1.31 29.599-17.099 46.985-5.457 6.009-9.922 11.13-9.922 11.381 0 .25 1.913.765 4.25 1.143 9.084 1.469 17.529 7.01 22.369 14.677 1.31 2.075 4.255 8.394 6.544 14.042 2.29 5.648 5.625 12.578 7.412 15.401 5.615 8.869 13.936 13.701 22.786 13.232l5.103-.271 1.174 9.998c1.81 15.404 7.608 30.751 12.726 33.685 1.372.786 6.607 1.224 14.636 1.224h12.5l.69 7.5c.38 4.125 1.89 10.65 3.357 14.5 5.411 14.201 5.901 16.573 5.927 28.75.014 6.463.254 11.75.533 11.75s2.979-2.029 6-4.508c5.891-4.835 11.617-7.282 30.493-13.028 15.448-4.703 26.196-10.313 34.32-17.913l6.449-6.032 1.598 2.491c2.778 4.331 7.958 8.559 15.411 12.58 9.742 5.255 19.621 15.105 22.726 22.66 1.3 3.163 2.619 5.747 2.93 5.743.311-.004 1.691-1.677 3.066-3.718 5.047-7.493 15.284-17.22 25.671-24.393 14.52-10.027 18.356-15.478 19.815-28.158.918-7.983 2.932-9.224 14.968-9.224 4.975 0 12.646.359 17.046.797 4.4.438 8.545.422 9.212-.036.927-.637.734-2.35-.824-7.296-2.508-7.967-3.549-22.914-1.993-28.624 1.77-6.496 6.169-9.669 16.19-11.676 4.628-.927 11.565-3.224 15.415-5.103 10.571-5.162 10.273-4.718 6.403-9.533-4.196-5.222-4.341-9.899-.509-16.438 3.996-6.818 11.978-11.619 23.378-14.059 3.238-.693 3.253-.724 1.5-2.969-13.415-17.177-22.412-27.425-27.781-31.645-3.57-2.805-6.491-5.793-6.491-6.64 0-4.819 11.465-27.029 22.252-43.109 2.705-4.033 4.768-7.473 4.583-7.646-.184-.172-3.71-.809-7.835-1.414-11.164-1.639-24.329-8.52-33.638-17.581-6.564-6.39-7.43-7.709-9.541-14.528-1.861-6.013-2.321-9.788-2.321-19.04 0-10.964.159-11.86 3.191-17.975 1.755-3.54 3.011-6.617 2.79-6.837-.898-.898-9.37-2.064-15.295-2.104-3.472-.024-11.743 1.081-18.38 2.456-20.23 4.191-22.806 3.475-22.806-6.342 0-4.949-.592-6.712-4.494-13.377-5.518-9.426-7.566-14.616-10.473-26.531-1.241-5.088-2.772-9.25-3.401-9.25s-2.22 2.362-3.536 5.25m-6.283 23.184c-3.127 2.949-10.127 8.28-15.554 11.847-19.911 13.087-25.898 22.358-31.156 48.247-3.368 16.583-7.609 75.146-5.163 71.313.582-.913 3.782-9.013 7.111-18C282.185 159.588 297.19 125 300.121 125c1.718 0 .568 3.426-11.078 33-12.028 30.543-18.355 48.93-17.866 51.919.332 2.029 6.396-8.346 30.635-52.419 6.655-12.1 12.78-22.9 13.612-24 1.503-1.988 1.513-1.987 1.544.124.07 4.635-5.674 17.023-21.036 45.376-8.104 14.958-11.56 23-9.882 23 1.693 0 27.981-25.288 32.429-31.194 2.358-3.131 5.684-9.047 7.39-13.146 8.781-21.093 8.275-35.922-1.832-53.66-2.664-4.675-5.408-10.412-6.099-12.75-.69-2.338-1.521-4.234-1.846-4.214-.326.021-3.151 2.449-6.279 5.398m-125.653 9.463c-10.176 26.648-10.085 39.112.433 59.103 6.613 12.57 37.53 49.277 39.688 47.119 1.41-1.41-3.116-13.809-10.266-28.119-6.594-13.199-13.03-28.877-12.982-31.624.064-3.58 3.911 2.552 13.569 21.624C232.161 204.677 242 221.612 242 217.159c0-.707-2.078-6.095-4.617-11.973-12.92-29.902-32.185-80.718-31.036-81.866.928-.928 4.482 4.896 11.179 18.321l7.412 14.859.119-5.5c.162-7.539 1.465-15.827 2.2-14 .332.825 1.364 7.125 2.293 14 2.207 16.337 5.152 27.79 10.929 42.5 5.33 13.572 6.935 16.5 9.044 16.5 2.174 0 1.938-3.212-2.527-34.32-2.196-15.302-4.684-33.735-5.529-40.964-.845-7.229-1.796-14.18-2.115-15.448-1.208-4.814-7.947-8.967-22.328-13.76-7.537-2.512-16.963-6.129-20.945-8.038-3.983-1.908-7.616-3.47-8.073-3.47-.457 0-2.188 3.553-3.846 7.897m-46.588 26.239c-.249.75-.646 9.014-.882 18.364-.362 14.351-.778 17.983-2.67 23.306-1.233 3.468-2.079 6.451-1.881 6.628.199.176 4.999 1.479 10.669 2.894 19.01 4.745 35.555 13.986 62.602 34.964 15.378 11.927 23.841 17.289 25.587 16.21 3.668-2.267-1.92-8.302-18.997-20.52-17.835-12.759-36.36-27.917-38.105-31.178-.855-1.598-.318-1.469 3.292.788 2.372 1.483 5.935 3.967 7.917 5.521C189.25 188.362 203.063 197 204.112 197c.387 0-4.408-6.816-10.657-15.146-15.663-20.881-21.075-31.961-22.952-46.986-.382-3.058-.989-6.031-1.349-6.606-.444-.71-2.711-.543-7.06.522-6.378 1.562-9.551 1.357-21.332-1.377-1.871-.434-2.88-.204-3.19.729m229.928.417c-2.75.756-10.175 2.36-16.5 3.565-6.325 1.205-11.994 2.684-12.597 3.287-.603.602-1.905 4.245-2.893 8.095-.988 3.85-4.375 12.85-7.527 20s-5.338 13.15-4.858 13.333c.479.183 4.36-.819 8.623-2.226 7.628-2.517 20.436-5.756 20.906-5.286.132.132-3.899 2.992-8.957 6.356-8.502 5.654-29.43 23.002-48.042 39.823-8.695 7.858-15.322 15.778-13.665 16.33.603.201 5.239-2.087 10.303-5.084 32.695-19.351 43.946-24.826 72.607-35.334 9.571-3.508 18.478-7.085 19.794-7.947l2.394-1.568-2.948-5.199c-6.881-12.133-9.482-27.92-6.765-41.055.894-4.321 1.625-8.034 1.625-8.25 0-.831-6.723-.153-11.5 1.16m-244.476 55.499c-7.607 3.614-16.623 5.913-23.274 5.933-4.612.015-4.75.103-4.75 3.026 0 1.656.722 7.393 1.604 12.75 1.162 7.059 1.46 13.403 1.081 23.051l-.523 13.312 2.169-1.394c14.542-9.348 24.694-13.709 37.619-16.161 4.549-.863 8.551-1.569 8.893-1.569.342 0-1.153-1.206-3.322-2.68-5.37-3.648-3.216-3.942 6.469-.883 4.462 1.41 9.553 2.587 11.312 2.616 1.759.029 6.552.652 10.651 1.385 8.881 1.588 8.264.788-4.307-5.584-9.551-4.841-20.633-8.959-30.591-11.366-9.132-2.207-7.079-3.643 3.384-2.367 11.895 1.452 17.343 3.426 46.561 16.876 7.425 3.418 14.625 6.64 16 7.159 3.225 1.218-21.422-23.709-29.5-29.834-10.628-8.06-26.645-15.008-38.5-16.703-3.766-.538-5.556-.142-10.976 2.433m258.476 5.692c-4.95 1.953-17.006 6.7-26.791 10.547-12.358 4.86-24.42 10.65-39.5 18.962-11.94 6.582-24.072 13.136-26.959 14.565-5.287 2.617-6.314 3.836-3.986 4.73 2.301.883 57.634-18.548 77.512-27.219 7.934-3.462 11.925-3.81 7.722-.675-4.555 3.399-14.359 8.7-22.896 12.382-8.965 3.865-9.241 4.87-.803 2.924 8.093-1.867 38.504-5.057 39.426-4.135.533.533-.653 1.312-2.913 1.912-2.096.556-11.687 3.133-21.312 5.726-9.625 2.594-23.575 6.224-31 8.069-14.034 3.486-33.49 9.351-38.25 11.53-1.547.708-2.75 2.064-2.75 3.099 0 2.503 3.47 2.407 24.5-.673 29.688-4.349 45.443-4.313 63 .144 7.9 2.005 9.756 3.839 3 2.964-11.356-1.472-32.453-1.813-42.181-.682-13.246 1.54-28.978 4.561-27.739 5.327.538.332 4.663 1.544 9.167 2.694 16.889 4.313 34.711 10.292 49.943 16.756 24.017 10.193 16.823 9.746-14.658-.912-17.041-5.769-31.534-9.758-35.505-9.772-1.915-.007-1.912.035.103 1.446 1.141.8 7.429 3.78 13.973 6.624 6.543 2.844 15.047 6.749 18.897 8.679 9.333 4.678 23.091 13.547 21.722 14.003-.601.201-10.327-3.708-21.612-8.686C334.116 282.356 306.765 272 303.877 272c-2.344 0-.083 2.002 8.378 7.419 12.787 8.185 29.28 20.614 41.745 31.457 6.336 5.512 13.369 10.577 17.736 12.774 6.85 3.446 7.595 3.605 14 2.993 3.72-.356 10.581-1.659 15.247-2.895l8.483-2.248 1.148-8.087c.631-4.447 2.07-10.17 3.196-12.717 2.303-5.205 9.768-13.654 14.827-16.781 3.962-2.448 3.913-2.593-4.007-11.892-7.532-8.845-15.738-15.456-24.392-19.653-3.994-1.937-7.042-3.879-6.772-4.315.27-.437 1.768-1.323 3.329-1.97 2.833-1.174 4.952-4.259 12.762-18.585 2.098-3.85 5.982-10.32 8.629-14.378 2.648-4.058 4.814-7.689 4.814-8.068 0-.379-2.408-1.448-5.352-2.376-5.732-1.807-14.45-7.087-21.493-13.019-2.389-2.012-4.639-3.616-5-3.563-.36.053-4.705 1.694-9.655 3.648M190.5 210c.995 1.1 2.035 2 2.31 2 .275 0-.315-.9-1.31-2-.995-1.1-2.035-2-2.31-2-.275 0 .315.9 1.31 2m7.5 6.368c4.943 5.326 19.669 17.632 21.1 17.632 2.964 0-.371-3.564-9.35-9.993-5.637-4.036-11.6-8.497-13.25-9.913-1.65-1.416-.975-.393 1.5 2.274m-59.035 12.123c-21.055 4.199-40.03 16.735-57.688 38.111l-4.215 5.101 4.816 3.121c9.815 6.36 15.189 13.881 22.659 31.709 6.513 15.546 10.888 20.475 18.163 20.462 2.764-.005 14.781-5.62 18.912-8.838 22.543-17.558 27.256-20.165 54.388-30.092 29.791-10.899 33.757-13.027 32.42-17.394-1.365-4.458-2.214-4.716-8.255-2.513-8.878 3.238-23.445 10.276-32.443 15.675-11.139 6.683-14.794 8.444-24.722 11.912-9.16 3.199-17 4.788-17 3.446 0-.459 6.318-3.671 14.04-7.138 14.638-6.574 27.371-14.051 25.196-14.796-.695-.238-5.87.96-11.5 2.663-13.504 4.085-24.403 6.096-32.574 6.01l-6.662-.07 10.5-2.422c18.057-4.166 49-14.518 49-16.394 0-1.584-4.66-1.979-17.994-1.525-32.093 1.09-55.392 1.294-53.322.467 4.264-1.704 18.274-3.043 46.857-4.478 15.928-.8 31.884-1.936 35.459-2.525 3.575-.588 7.963-1.296 9.75-1.572 2.601-.401 3.25-.97 3.25-2.848 0-2.815-.456-2.952-16.5-4.941-25.991-3.224-36.872-3.917-53.288-3.394-15.315.487-16.294.418-11.712-.827 2.75-.748 9.767-1.884 15.592-2.526 11.483-1.265 32.724-.255 56.81 2.701 6.821.837 13.001 1.292 13.733 1.011 2.241-.86.384-3.427-2.969-4.103-1.741-.352-11.716-3.497-22.166-6.989-10.532-3.52-22.486-6.829-26.822-7.423-10.171-1.394-23.505-1.218-31.713.419m107.535 2.57c-8.314 2.44-14.515 11.65-14.478 21.505.061 16.608 15.335 27.453 30.918 21.955 6.372-2.248 9.862-5.196 12.64-10.679 6.057-11.953 1.43-26.617-10.08-31.946-4.291-1.987-13.672-2.399-19-.835m37.532 37.4c-.691.832-1.013 2.147-.716 2.921.298.774 8.335 8.135 17.862 16.357 9.527 8.222 20.247 18.062 23.822 21.867 8.506 9.054 19.353 22.374 18.728 22.999-.271.271-3.358-.842-6.86-2.473l-16.259-7.574c-5.441-2.535-10.055-4.445-10.255-4.245-.201.2 3.274 5.196 7.721 11.102 10.627 14.116 21.951 31.03 24.327 36.337l1.902 4.248h15.955c14.836 0 15.898-.123 15.148-1.75-.444-.962-.852-8.418-.907-16.568l-.099-14.817-3.45-2.613c-1.898-1.437-9.301-8.307-16.451-15.266-14.222-13.843-20.569-18.797-47.666-37.199-9.951-6.758-18.869-12.861-19.819-13.563-1.423-1.052-1.947-1.01-2.983.237m-43.769 19.789c-1.474 3.438-6.146 13.277-10.383 21.866-8.511 17.251-14.088 30.881-21.779 53.229-6.125 17.799-7.028 19.634-7.071 14.363-.097-12.206 6.294-31.491 22.939-69.208 3.398-7.7 6.829-15.575 7.623-17.5l1.445-3.5-2.768 3.492c-1.523 1.92-5.497 6.645-8.831 10.5-31.815 36.783-41.077 54.593-40.829 78.508.091 8.776.616 12.091 3.194 20.189 1.696 5.33 3.397 12.455 3.779 15.835.412 3.644 1.237 6.353 2.025 6.655 2.072.795 32.372-9.354 42.133-14.112 12.028-5.864 26.26-15.284 26.258-17.38-.001-.928-.747-8.212-1.657-16.187-1.1-9.644-1.725-24.38-1.865-44-.246-34.398-.233-34.067-1.415-35.936-1.245-1.968-3.679.086-5.627 4.749-2.596 6.213-13.136 44.272-16.945 61.187-5.264 23.379-10.257 36.093-9.032 23 1.837-19.628 5.808-37.36 16.881-75.369 3.664-12.578 6.662-23.715 6.662-24.75 0-3.711-2.105-1.77-4.737 4.369m26.084-3.713c-.929 2.421 2.145 12.009 12.648 39.463 5.366 14.025 11.415 30.64 13.442 36.922 4.432 13.733 8.769 31.658 8.352 34.512-.393 2.681-7.582-14.397-16.179-38.434-3.64-10.175-8.392-23-10.562-28.5l-3.944-10-.046 5.5c-.064 7.582 2.382 23.131 5.95 37.827 3.61 14.874 3.72 17.906.33 9.173-3.492-8.995-5.902-18.742-9.376-37.923-3.714-20.502-4.095-21.152-5.896-10.052-2.272 14.003-.461 57.367 2.92 69.923 1.26 4.679 7.524 10.67 17.333 16.577 4.301 2.59 10.436 7.131 13.634 10.092 3.198 2.961 6.154 5.383 6.569 5.383.416 0 3.73-2.397 7.367-5.327 3.636-2.93 9.536-7.502 13.111-10.161 9.873-7.342 12.046-9.573 14.617-15.012 3.066-6.486 3.214-16.6.377-25.785-3.314-10.729-18.757-32.51-44.673-63.007-12.718-14.966-11.034-9.824 8.612 26.292 6.459 11.875 10.928 21.915 11.663 26.203.552 3.218.491 3.182-2.545-1.498-5.534-8.53-20.717-35.214-31.127-54.701C273.341 291.552 268.36 283 267.855 283c-.505 0-1.183.692-1.508 1.537M202 290.698c-19.667 7.044-31.186 12.207-39.263 17.598-11.362 7.584-13.737 11.008-13.737 19.8 0 8.083-1.073 14.043-5.142 28.553-3.302 11.778-3.288 15.763.063 16.826 1.74.552 26.252-3.846 28.222-5.063.457-.283 1.564-3.078 2.46-6.213 3.495-12.223 12.809-27.643 29.417-48.699 11.002-13.948 16.36-21.454 15.75-22.063-.262-.263-3.581 1.635-7.374 4.217-19.037 12.961-36.756 28.099-45.466 38.847-6.426 7.928-7.726 6.653-2.749-2.698 5.031-9.456 21.995-25.652 42.545-40.622 4.064-2.96 2.606-3.109-4.726-.483" fill-rule="evenodd"/>
</svg>