<svg width="18" height="18" viewBox="0 0 18 18" fill="none" xmlns="http://www.w3.org/2000/svg">
  <style>
    path {
      fill: #EFAD03;
    }
    @media (prefers-color-scheme: dark) {
      path {
        fill: yellow;
      }
    }
  </style>
  <mask id="path-1-inside-1_69_22" fill="white">
    <path fill-rule="evenodd" clip-rule="evenodd" d="M15 3H3V15H11V11H15V3ZM3 18H11L18 11V3V0H15H3H0V3V15V18H3Z"/>
  </mask>
  <path fill-rule="evenodd" clip-rule="evenodd" d="M15 3H3V15H11V11H15V3ZM3 18H11L18 11V3V0H15H3H0V3V15V18H3Z" fill="black"/>
  <path d="M3 3V2H2V3H3ZM15 3H16V2H15V3ZM3 15H2V16H3V15ZM11 15V16H12V15H11ZM11 11V10H10V11H11ZM15 11V12H16V11H15ZM11 18V19H11.4142L11.7071 18.7071L11 18ZM18 11L18.7071 11.7071L19 11.4142V11H18ZM18 0H19V-1H18V0ZM0 0V-1H-1V0H0ZM0 18H-1V19H0V18ZM3 4H15V2H3V4ZM4 15V3H2V15H4ZM11 14H3V16H11V14ZM10 11V15H12V11H10ZM15 10H11V12H15V10ZM14 3V11H16V3H14ZM11 17H3V19H11V17ZM17.2929 10.2929L10.2929 17.2929L11.7071 18.7071L18.7071 11.7071L17.2929 10.2929ZM17 3V11H19V3H17ZM17 0V3H19V0H17ZM15 1H18V-1H15V1ZM3 1H15V-1H3V1ZM0 1H3V-1H0V1ZM1 3V0H-1V3H1ZM1 15V3H-1V15H1ZM1 18V15H-1V18H1ZM3 17H0V19H3V17Z" fill="black" mask="url(#path-1-inside-1_69_22)"/>
</svg>
