<svg width="24" height="24" viewBox="0 0 24 24" fill="none" xmlns="http://www.w3.org/2000/svg">
  <mask id="mask0_71_9" style="mask-type:alpha" maskUnits="userSpaceOnUse" x="0" y="0" width="24" height="24">
    <rect width="24" height="24" fill="#D9D9D9"/>
  </mask>
  <g mask="url(#mask0_71_9)">
    <mask id="path-2-inside-1_71_9" fill="white">
      <path fill-rule="evenodd" clip-rule="evenodd" d="M6 6H18V14H14V18H6V6ZM14 21H6H3V18V6V3H6H18H21V6V14L14 21ZM16 17C16.5523 17 17 16.5523 17 16C17 15.4477 16.5523 15 16 15C15.4477 15 15 15.4477 15 16C15 16.5523 15.4477 17 16 17Z"/>
    </mask>
    <path fill-rule="evenodd" clip-rule="evenodd" d="M6 6H18V14H14V18H6V6ZM14 21H6H3V18V6V3H6H18H21V6V14L14 21ZM16 17C16.5523 17 17 16.5523 17 16C17 15.4477 16.5523 15 16 15C15.4477 15 15 15.4477 15 16C15 16.5523 15.4477 17 16 17Z" fill="black"/>
    <path d="M18 6H19V5H18V6ZM6 6V5H5V6H6ZM18 14V15H19V14H18ZM14 14V13H13V14H14ZM14 18V19H15V18H14ZM6 18H5V19H6V18ZM14 21V22H14.4142L14.7071 21.7071L14 21ZM3 21H2V22H3V21ZM3 3V2H2V3H3ZM21 3H22V2H21V3ZM21 14L21.7071 14.7071L22 14.4142V14H21ZM18 5H6V7H18V5ZM19 14V6H17V14H19ZM14 15H18V13H14V15ZM15 18V14H13V18H15ZM6 19H14V17H6V19ZM5 6V18H7V6H5ZM6 22H14V20H6V22ZM3 22H6V20H3V22ZM2 18V21H4V18H2ZM2 6V18H4V6H2ZM2 3V6H4V3H2ZM6 2H3V4H6V2ZM18 2H6V4H18V2ZM21 2H18V4H21V2ZM22 6V3H20V6H22ZM22 14V6H20V14H22ZM14.7071 21.7071L21.7071 14.7071L20.2929 13.2929L13.2929 20.2929L14.7071 21.7071ZM16 16V18C17.1046 18 18 17.1046 18 16H16ZM16 16H18C18 14.8954 17.1046 14 16 14V16ZM16 16V14C14.8954 14 14 14.8954 14 16H16ZM16 16H14C14 17.1046 14.8954 18 16 18V16Z" fill="black" mask="url(#path-2-inside-1_71_9)"/>
  </g>
</svg>
